<?xml version="1.0" standalone="no"?>
<!DOCTYPE svg PUBLIC "-//W3C//DTD SVG 20010904//EN"
 "http://www.w3.org/TR/2001/REC-SVG-20010904/DTD/svg10.dtd">
<svg version="1.0" xmlns="http://www.w3.org/2000/svg"
 width="939.000000pt" height="939.000000pt" viewBox="0 0 939.000000 939.000000"
 preserveAspectRatio="xMidYMid meet">
<metadata>
Created by potrace 1.14, written by Peter Selinger 2001-2017
</metadata>
<g transform="translate(0.000000,939.000000) scale(0.100000,-0.100000)"
fill="#000000" stroke="none">
<path d="M2347 9364 c-1 -1 -148 -5 -327 -8 -407 -9 -592 -16 -780 -32 -54 -4
-170 -17 -180 -19 -3 -1 -25 -5 -50 -9 -303 -52 -561 -184 -730 -370 -19 -22
-39 -44 -45 -50 -20 -22 -72 -102 -100 -151 -42 -77 -83 -190 -108 -300 l-22
-100 0 -1865 c0 -1770 1 -1869 18 -1950 75 -344 265 -594 575 -750 85 -43 263
-105 333 -115 24 -4 46 -8 49 -10 7 -4 75 -15 130 -20 25 -3 61 -7 80 -9 222
-29 761 -41 1803 -41 835 0 947 -2 948 -15 0 -8 1 -802 2 -1765 l2 -1750 905
0 905 0 1 977 c0 538 4 981 7 984 4 4 591 7 1305 7 l1300 0 0 633 0 634 -1304
0 c-1235 0 -1304 1 -1305 18 -4 76 -1 1092 3 1103 5 12 277 14 1808 14 991 0
1805 2 1808 5 8 6 10 1330 2 1331 -7 0 -5333 0 -5391 0 l-47 -1 0 -297 c0
-164 -1 -307 -1 -319 -1 -28 -82 -110 -129 -130 -56 -24 -112 -32 -332 -49
-256 -20 -858 -20 -1150 0 -82 5 -120 9 -233 20 -94 10 -180 63 -230 141 -53
86 -51 27 -52 1339 -1 884 2 1234 10 1271 22 96 79 170 166 214 51 27 107 35
374 55 314 24 843 24 1075 0 19 -1 71 -6 115 -10 77 -6 99 -8 182 -20 88 -13
183 -90 225 -183 22 -48 25 -102 28 -502 l0 -85 903 0 902 0 2 170 c5 613 5
895 0 930 -4 22 -9 60 -12 85 -13 96 -79 302 -110 340 -6 8 -15 23 -18 33 -26
71 -189 252 -299 330 -115 82 -342 182 -460 202 -18 3 -49 10 -68 15 -19 5
-55 11 -80 14 -25 3 -61 7 -80 10 -114 16 -424 32 -830 42 -221 5 -1488 12
-1493 8z"/>
</g>
</svg>
